<?xml version="1.0" encoding="UTF-8" standalone="no"?>
<!DOCTYPE svg PUBLIC "-//W3C//DTD SVG 1.1//EN"
 "http://www.w3.org/Graphics/SVG/1.1/DTD/svg11.dtd">
<!-- Generated by graphviz version 7.1.0 (20230121.1956)
 -->
<!-- Title: blah Pages: 1 -->
<svg width="506pt" height="307pt"
 viewBox="0.00 0.00 505.50 307.00" xmlns="http://www.w3.org/2000/svg" xmlns:xlink="http://www.w3.org/1999/xlink">
<g id="graph0" class="graph" transform="scale(1 1) rotate(0) translate(4 303)">
<title>blah</title>
<polygon fill="white" stroke="none" points="-4,4 -4,-303 501.5,-303 501.5,4 -4,4"/>
<!-- A1 -->
<g id="node1" class="node">
<title>A1</title>
<polygon fill="none" stroke="black" points="226.5,-261.5 226.5,-294.5 302.5,-294.5 302.5,-261.5 226.5,-261.5"/>
<text text-anchor="start" x="235.5" y="-275.3" font-family="Courier,monospace" font-weight="bold" font-size="14.00">JObject</text>
<polygon fill="none" stroke="black" points="302.5,-261.5 302.5,-294.5 345.5,-294.5 345.5,-261.5 302.5,-261.5"/>
<text text-anchor="start" x="311.5" y="-274.3" font-family="Courier,monospace" font-size="14.00">&quot;a&quot;</text>
<polygon fill="none" stroke="black" points="345.5,-261.5 345.5,-294.5 388.5,-294.5 388.5,-261.5 345.5,-261.5"/>
<text text-anchor="start" x="354.5" y="-274.3" font-family="Courier,monospace" font-size="14.00">&quot;b&quot;</text>
<polygon fill="none" stroke="black" points="388.5,-261.5 388.5,-294.5 431.5,-294.5 431.5,-261.5 388.5,-261.5"/>
<text text-anchor="start" x="397.5" y="-274.3" font-family="Courier,monospace" font-size="14.00">&quot;c&quot;</text>
</g>
<!-- A2 -->
<g id="node3" class="node">
<title>A2</title>
<polygon fill="none" stroke="black" points="239.5,-175.5 239.5,-208.5 307.5,-208.5 307.5,-175.5 239.5,-175.5"/>
<text text-anchor="start" x="248.5" y="-189.3" font-family="Courier,monospace" font-weight="bold" font-size="14.00">JArray</text>
<polygon fill="none" stroke="black" points="307.5,-175.5 307.5,-208.5 334.5,-208.5 334.5,-175.5 307.5,-175.5"/>
<text text-anchor="start" x="316.5" y="-188.3" font-family="Courier,monospace" font-size="14.00">0</text>
<polygon fill="none" stroke="black" points="334.5,-175.5 334.5,-208.5 361.5,-208.5 361.5,-175.5 334.5,-175.5"/>
<text text-anchor="start" x="343.5" y="-188.3" font-family="Courier,monospace" font-size="14.00">1</text>
<polygon fill="none" stroke="black" points="361.5,-175.5 361.5,-208.5 388.5,-208.5 388.5,-175.5 361.5,-175.5"/>
<text text-anchor="start" x="370.5" y="-188.3" font-family="Courier,monospace" font-size="14.00">2</text>
<polygon fill="none" stroke="black" points="388.5,-175.5 388.5,-208.5 415.5,-208.5 415.5,-175.5 388.5,-175.5"/>
<text text-anchor="start" x="397.5" y="-188.3" font-family="Courier,monospace" font-size="14.00">3</text>
</g>
<!-- A1&#45;&gt;A2 -->
<g id="edge1" class="edge">
<title>A1:s&#45;&gt;A2:n</title>
<path fill="none" stroke="black" d="M323.5,-260.5C323.5,-243.62 326.04,-236.93 327.07,-224.19"/>
<polygon fill="black" stroke="black" points="330.56,-224.64 327.44,-214.51 323.56,-224.37 330.56,-224.64"/>
<text text-anchor="middle" x="333.5" y="-233.6" font-family="Helvetica,sans-Serif" font-size="8.00">child</text>
</g>
<!-- F1 -->
<g id="node2" class="node">
<title>F1</title>
<polygon fill="none" stroke="black" points="65.5,-261.5 65.5,-294.5 166.5,-294.5 166.5,-261.5 65.5,-261.5"/>
<text text-anchor="start" x="74.5" y="-275.3" font-family="Courier,monospace" font-weight="bold" font-size="14.00">JRootFocus</text>
</g>
<!-- F1&#45;&gt;A1 -->
<g id="edge4" class="edge">
<title>F1&#45;&gt;A1</title>
<path fill="none" stroke="black" d="M173.98,-278.5C184.33,-278.5 195.44,-278.5 206.78,-278.5"/>
<polygon fill="black" stroke="black" points="206.67,-282 216.67,-278.5 206.67,-275 206.67,-282"/>
<text text-anchor="middle" x="196" y="-284.1" font-family="Helvetica,sans-Serif" font-size="8.00">value</text>
</g>
<!-- F2 -->
<g id="node4" class="node">
<title>F2</title>
<polygon fill="none" stroke="black" points="8.5,-175.5 8.5,-208.5 117.5,-208.5 117.5,-175.5 8.5,-175.5"/>
<text text-anchor="start" x="17.5" y="-189.3" font-family="Courier,monospace" font-weight="bold" font-size="14.00">JFieldFocus</text>
<polygon fill="none" stroke="black" points="117.5,-175.5 117.5,-208.5 160.5,-208.5 160.5,-175.5 117.5,-175.5"/>
<text text-anchor="start" x="126.5" y="-188.3" font-family="Courier,monospace" font-size="14.00">&quot;a&quot;</text>
<polygon fill="none" stroke="black" points="160.5,-175.5 160.5,-208.5 187.5,-208.5 187.5,-175.5 160.5,-175.5"/>
<text text-anchor="start" x="169.5" y="-188.3" font-family="Courier,monospace" font-size="14.00">1</text>
</g>
<!-- F1&#45;&gt;F2 -->
<g id="edge8" class="edge">
<title>F1&#45;&gt;F2</title>
<path fill="none" stroke="black" d="M108.92,-246.79C106.49,-235.45 103.81,-222.93 101.65,-212.88"/>
<polygon fill="black" stroke="black" points="105.49,-247.49 111.01,-256.54 112.34,-246.03 105.49,-247.49"/>
<text text-anchor="middle" x="119.5" y="-233.6" font-family="Helvetica,sans-Serif" font-size="8.00">parent</text>
</g>
<!-- A3 -->
<g id="node5" class="node">
<title>A3</title>
<polygon fill="none" stroke="black" points="241.5,-89.5 241.5,-122.5 317.5,-122.5 317.5,-89.5 241.5,-89.5"/>
<text text-anchor="start" x="250.5" y="-103.3" font-family="Courier,monospace" font-weight="bold" font-size="14.00">JObject</text>
<polygon fill="none" stroke="black" points="317.5,-89.5 317.5,-122.5 360.5,-122.5 360.5,-89.5 317.5,-89.5"/>
<text text-anchor="start" x="326.5" y="-102.3" font-family="Courier,monospace" font-size="14.00">&quot;w&quot;</text>
<polygon fill="none" stroke="black" points="360.5,-89.5 360.5,-122.5 403.5,-122.5 403.5,-89.5 360.5,-89.5"/>
<text text-anchor="start" x="369.5" y="-102.3" font-family="Courier,monospace" font-size="14.00">&quot;x&quot;</text>
<polygon fill="none" stroke="black" points="403.5,-89.5 403.5,-122.5 446.5,-122.5 446.5,-89.5 403.5,-89.5"/>
<text text-anchor="start" x="412.5" y="-102.3" font-family="Courier,monospace" font-size="14.00">&quot;y&quot;</text>
<polygon fill="none" stroke="black" points="446.5,-89.5 446.5,-122.5 489.5,-122.5 489.5,-89.5 446.5,-89.5"/>
<text text-anchor="start" x="455.5" y="-102.3" font-family="Courier,monospace" font-size="14.00">&quot;z&quot;</text>
</g>
<!-- A2&#45;&gt;A3 -->
<g id="edge2" class="edge">
<title>A2:s&#45;&gt;A3:n</title>
<path fill="none" stroke="black" d="M375.5,-174.5C375.5,-157.31 369.15,-151.05 366.57,-138.3"/>
<polygon fill="black" stroke="black" points="370.07,-138.13 365.64,-128.51 363.1,-138.79 370.07,-138.13"/>
<text text-anchor="middle" x="379.5" y="-147.6" font-family="Helvetica,sans-Serif" font-size="8.00">child</text>
</g>
<!-- F2&#45;&gt;A2 -->
<g id="edge5" class="edge">
<title>F2&#45;&gt;A2</title>
<path fill="none" stroke="black" d="M194.71,-192.5C203.23,-192.5 211.89,-192.5 220.49,-192.5"/>
<polygon fill="black" stroke="black" points="220.23,-196 230.23,-192.5 220.23,-189 220.23,-196"/>
<text text-anchor="middle" x="213.25" y="-198.1" font-family="Helvetica,sans-Serif" font-size="8.00">value</text>
</g>
<!-- F3 -->
<g id="node6" class="node">
<title>F3</title>
<polygon fill="none" stroke="black" points="60.5,-89.5 60.5,-122.5 161.5,-122.5 161.5,-89.5 60.5,-89.5"/>
<text text-anchor="start" x="69.5" y="-103.3" font-family="Courier,monospace" font-weight="bold" font-size="14.00">JItemFocus</text>
<polygon fill="none" stroke="black" points="161.5,-89.5 161.5,-122.5 188.5,-122.5 188.5,-89.5 161.5,-89.5"/>
<text text-anchor="start" x="170.5" y="-102.3" font-family="Courier,monospace" font-size="14.00">2</text>
</g>
<!-- F2&#45;&gt;F3 -->
<g id="edge9" class="edge">
<title>F2&#45;&gt;F3</title>
<path fill="none" stroke="black" d="M107.26,-161.14C110.93,-149.72 115.01,-137.04 118.27,-126.88"/>
<polygon fill="black" stroke="black" points="103.95,-159.99 104.23,-170.58 110.62,-162.13 103.95,-159.99"/>
<text text-anchor="middle" x="124.5" y="-147.6" font-family="Helvetica,sans-Serif" font-size="8.00">parent</text>
</g>
<!-- A4 -->
<g id="node7" class="node">
<title>A4</title>
<polygon fill="none" stroke="black" points="308.5,-3.5 308.5,-36.5 384.5,-36.5 384.5,-3.5 308.5,-3.5"/>
<text text-anchor="start" x="317.5" y="-17.3" font-family="Courier,monospace" font-weight="bold" font-size="14.00">JString</text>
<polygon fill="none" stroke="black" points="384.5,-3.5 384.5,-36.5 444.5,-36.5 444.5,-3.5 384.5,-3.5"/>
<text text-anchor="start" x="393.5" y="-16.3" font-family="Courier,monospace" font-size="14.00">&quot;foo&quot;</text>
</g>
<!-- A3&#45;&gt;A4 -->
<g id="edge3" class="edge">
<title>A3:s&#45;&gt;A4:n</title>
<path fill="none" stroke="black" d="M382.5,-88.5C382.5,-71.54 378.69,-64.96 377.14,-52.22"/>
<polygon fill="black" stroke="black" points="380.65,-52.29 376.59,-42.51 373.66,-52.69 380.65,-52.29"/>
<text text-anchor="middle" x="387.5" y="-61.6" font-family="Helvetica,sans-Serif" font-size="8.00">child</text>
</g>
<!-- F3&#45;&gt;A3 -->
<g id="edge6" class="edge">
<title>F3&#45;&gt;A3</title>
<path fill="none" stroke="black" d="M196.48,-106.5C204.77,-106.5 213.43,-106.5 222.25,-106.5"/>
<polygon fill="black" stroke="black" points="222,-110 232,-106.5 222,-103 222,-110"/>
<text text-anchor="middle" x="215" y="-112.1" font-family="Helvetica,sans-Serif" font-size="8.00">value</text>
</g>
<!-- F4 -->
<g id="node8" class="node">
<title>F4</title>
<polygon fill="none" stroke="black" points="71.5,-3.5 71.5,-36.5 180.5,-36.5 180.5,-3.5 71.5,-3.5"/>
<text text-anchor="start" x="80.5" y="-17.3" font-family="Courier,monospace" font-weight="bold" font-size="14.00">JFieldFocus</text>
<polygon fill="none" stroke="black" points="180.5,-3.5 180.5,-36.5 223.5,-36.5 223.5,-3.5 180.5,-3.5"/>
<text text-anchor="start" x="189.5" y="-16.3" font-family="Courier,monospace" font-size="14.00">&quot;x&quot;</text>
<polygon fill="none" stroke="black" points="223.5,-3.5 223.5,-36.5 250.5,-36.5 250.5,-3.5 223.5,-3.5"/>
<text text-anchor="start" x="232.5" y="-16.3" font-family="Courier,monospace" font-size="14.00">1</text>
</g>
<!-- F3&#45;&gt;F4 -->
<g id="edge10" class="edge">
<title>F3&#45;&gt;F4</title>
<path fill="none" stroke="black" d="M137.36,-75.5C142.29,-63.98 147.8,-51.14 152.2,-40.88"/>
<polygon fill="black" stroke="black" points="134.17,-74.06 133.45,-84.63 140.6,-76.81 134.17,-74.06"/>
<text text-anchor="middle" x="156.5" y="-61.6" font-family="Helvetica,sans-Serif" font-size="8.00">parent</text>
</g>
<!-- F4&#45;&gt;A4 -->
<g id="edge7" class="edge">
<title>F4&#45;&gt;A4</title>
<path fill="none" stroke="black" d="M257.76,-20.5C268.37,-20.5 279.11,-20.5 289.59,-20.5"/>
<polygon fill="black" stroke="black" points="289.31,-24 299.31,-20.5 289.31,-17 289.31,-24"/>
<text text-anchor="middle" x="279.25" y="-26.1" font-family="Helvetica,sans-Serif" font-size="8.00">value</text>
</g>
</g>
</svg>
